<svg xmlns="http://www.w3.org/2000/svg" viewBox="0 0 512 512">
  <defs>
    <linearGradient id="background" x1="0" y1="0" x2="1" y2="1">
      <stop offset="0" stop-color="#25243d"/>
      <stop offset="1" stop-color="#11111d"/>
    </linearGradient>
    <linearGradient id="accent" x1="0" y1="0" x2="1" y2="1">
      <stop offset="0" stop-color="#8b8df2"/>
      <stop offset="1" stop-color="#6264a7"/>
    </linearGradient>
  </defs>
  <rect width="512" height="512" rx="104" fill="url(#background)"/>
  <path d="M98 112h316a42 42 0 0 1 42 42v188a42 42 0 0 1-42 42H265l-81 64v-64H98a42 42 0 0 1-42-42V154a42 42 0 0 1 42-42Z" fill="url(#accent)"/>
  <path d="M256 331c-16-15-88-61-88-115 0-35 25-61 59-61 18 0 35 9 45 24 10-15 27-24 45-24 34 0 59 26 59 61 0 54-72 100-88 115l-16 14-16-14Z" fill="#ff668f"/>
  <path d="M133 75v38M114 94h38M385 393v40M365 413h40" stroke="#f3d566" stroke-width="16" stroke-linecap="round"/>
</svg>
